#Comment line ignore any data following # character 
#Hierarchical Translation and Rotation (.htr) file 
[Header]	
#Header keywords are followed by a single value 
FileType HTR		#Single word string
DataType HTRS		#Translation followed by rotation and scale data
FileVersion 1		#integer
NumSegments 64		#integer
NumFrames 3		#integer
DataFrameRate 30		#integer, data frame rate in this file
EulerRotationOrder ZYX
CalibrationUnits mm
RotationUnits Degrees
GlobalAxisofGravity Y
BoneLengthAxis Y
ScaleFactor 1.00
[SegmentNames&Hierarchy]
#CHILD	PARENT
Pinger_Root GLOBAL
Pelvis Pinger_Root
L_Hip Pelvis
R_Hip Pelvis
Rear_Leg01 Pelvis
Spine1 Pelvis
L_Leg01 L_Hip
L_Leg02 L_Leg01
L_Leg03 L_Leg02
L_Foot L_Leg03
L_Toe1_01 L_Foot
L_Toe2_01 L_Foot
L_Toe3_01 L_Foot
planeAlignerLeft L_Foot
L_Toe1_02 L_Toe1_01
L_Toe1_03 L_Toe1_02
L_Toe2_02 L_Toe2_01
L_Toe2_03 L_Toe2_02
L_Toe3_02 L_Toe3_01
L_Toe3_03 L_Toe3_02
planeLockWeightLeft planeAlignerLeft
R_Leg01 R_Hip
R_Leg02 R_Leg01
R_Leg03 R_Leg02
R_Foot R_Leg03
planeAlignerRight R_Foot
R_Toe1_01 R_Foot
R_Toe2_01 R_Foot
R_Toe3_01 R_Foot
planeLockWeightRight planeAlignerRight
R_Toe1_02 R_Toe1_01
R_Toe1_03 R_Toe1_02
R_Toe2_02 R_Toe2_01
R_Toe2_03 R_Toe2_02
R_Toe3_02 R_Toe3_01
R_Toe3_03 R_Toe3_02
Rear_Leg02 Rear_Leg01
Rear_Leg03 Rear_Leg02
Rear_Leg04 Rear_Leg03
Rear_Foot Rear_Leg04
planeAlignerCenter Rear_Foot
Rear_Toe1_01 Rear_Foot
Rear_Toe2_01 Rear_Foot
Rear_Toe3_01 Rear_Foot
planeLockWeightCenter planeAlignerCenter
Rear_Toe1_02 Rear_Toe1_01
Rear_Toe1_03 Rear_Toe1_02
Rear_Toe2_02 Rear_Toe2_01
Rear_Toe2_03 Rear_Toe2_02
Rear_Toe3_02 Rear_Toe3_01
Rear_Toe3_03 Rear_Toe3_02
Back_Bone Spine1
Head Spine1
Motor_Bone Back_Bone
Ping_Mechanism Back_Bone
BN_LookIK Head
bottomMouth Head
L_Mouth01 Head
L_mouthFront Head
mouthGun Head
R_Mouth01 Head
R_mouthFront Head
TopMouth Head
weapon_bone Head
[BasePosition]
#SegmentName Tx, Ty, Tz, Rx, Ry, Rz, BoneLength
Pinger_Root 0.000000 0.000000 0.000000 -90.000000 0.000000 0.000000 10.000000 
Pelvis 0.000000 0.000000 0.000000 0.000000 0.000000 0.000000 10.000000 
L_Hip 0.000000 0.000000 0.000000 0.000000 0.000000 0.000000 10.000000 
R_Hip 0.000000 0.000000 0.000000 0.000000 0.000000 0.000000 10.000000 
Rear_Leg01 0.000000 0.000000 0.000000 0.000000 0.000000 0.000000 10.000000 
Spine1 0.000000 0.000000 0.000000 0.000000 0.000000 0.000000 10.000000 
L_Leg01 0.000000 0.000000 0.000000 0.000000 0.000000 0.000000 10.000000 
L_Leg02 0.000000 0.000000 0.000000 0.000000 0.000000 0.000000 10.000000 
L_Leg03 0.000000 0.000000 0.000000 0.000000 0.000000 0.000000 10.000000 
L_Foot 0.000000 0.000000 0.000000 0.000000 0.000000 0.000000 10.000000 
L_Toe1_01 0.000000 0.000000 0.000000 0.000000 0.000000 0.000000 10.000000 
L_Toe2_01 0.000000 0.000000 0.000000 0.000000 0.000000 0.000000 10.000000 
L_Toe3_01 0.000000 0.000000 0.000000 0.000000 0.000000 0.000000 10.000000 
planeAlignerLeft 0.000000 0.000000 0.000000 0.000000 0.000000 0.000000 10.000000 
L_Toe1_02 0.000000 0.000000 0.000000 0.000000 0.000000 0.000000 10.000000 
L_Toe1_03 0.000000 0.000000 0.000000 0.000000 0.000000 0.000000 10.000000 
L_Toe2_02 0.000000 0.000000 0.000000 0.000000 0.000000 0.000000 10.000000 
L_Toe2_03 0.000000 0.000000 0.000000 0.000000 0.000000 0.000000 10.000000 
L_Toe3_02 0.000000 0.000000 0.000000 0.000000 0.000000 0.000000 10.000000 
L_Toe3_03 0.000000 0.000000 0.000000 0.000000 0.000000 0.000000 10.000000 
planeLockWeightLeft 0.000000 0.000000 0.000000 0.000000 0.000000 0.000000 10.000000 
R_Leg01 0.000000 0.000000 0.000000 0.000000 0.000000 0.000000 10.000000 
R_Leg02 0.000000 0.000000 0.000000 0.000000 0.000000 0.000000 10.000000 
R_Leg03 0.000000 0.000000 0.000000 0.000000 0.000000 0.000000 10.000000 
R_Foot 0.000000 0.000000 0.000000 0.000000 0.000000 0.000000 10.000000 
planeAlignerRight 0.000000 0.000000 0.000000 0.000000 0.000000 0.000000 10.000000 
R_Toe1_01 0.000000 0.000000 0.000000 0.000000 0.000000 0.000000 10.000000 
R_Toe2_01 0.000000 0.000000 0.000000 0.000000 0.000000 0.000000 10.000000 
R_Toe3_01 0.000000 0.000000 0.000000 0.000000 0.000000 0.000000 10.000000 
planeLockWeightRight 0.000000 0.000000 0.000000 0.000000 0.000000 0.000000 10.000000 
R_Toe1_02 0.000000 0.000000 0.000000 0.000000 0.000000 0.000000 10.000000 
R_Toe1_03 0.000000 0.000000 0.000000 0.000000 0.000000 0.000000 10.000000 
R_Toe2_02 0.000000 0.000000 0.000000 0.000000 0.000000 0.000000 10.000000 
R_Toe2_03 0.000000 0.000000 0.000000 0.000000 0.000000 0.000000 10.000000 
R_Toe3_02 0.000000 0.000000 0.000000 0.000000 0.000000 0.000000 10.000000 
R_Toe3_03 0.000000 0.000000 0.000000 0.000000 0.000000 0.000000 10.000000 
Rear_Leg02 0.000000 0.000000 0.000000 0.000000 0.000000 0.000000 10.000000 
Rear_Leg03 0.000000 0.000000 0.000000 0.000000 0.000000 0.000000 10.000000 
Rear_Leg04 0.000000 0.000000 0.000000 0.000000 0.000000 0.000000 10.000000 
Rear_Foot 0.000000 0.000000 0.000000 0.000000 0.000000 0.000000 10.000000 
planeAlignerCenter 0.000000 0.000000 0.000000 0.000000 0.000000 0.000000 10.000000 
Rear_Toe1_01 0.000000 0.000000 0.000000 0.000000 0.000000 0.000000 10.000000 
Rear_Toe2_01 0.000000 0.000000 0.000000 0.000000 0.000000 0.000000 10.000000 
Rear_Toe3_01 0.000000 0.000000 0.000000 0.000000 0.000000 0.000000 10.000000 
planeLockWeightCenter 0.000000 0.000000 0.000000 0.000000 0.000000 0.000000 10.000000 
Rear_Toe1_02 0.000000 0.000000 0.000000 0.000000 0.000000 0.000000 10.000000 
Rear_Toe1_03 0.000000 0.000000 0.000000 0.000000 0.000000 0.000000 10.000000 
Rear_Toe2_02 0.000000 0.000000 0.000000 0.000000 0.000000 0.000000 10.000000 
Rear_Toe2_03 0.000000 0.000000 0.000000 0.000000 0.000000 0.000000 10.000000 
Rear_Toe3_02 0.000000 0.000000 0.000000 0.000000 0.000000 0.000000 10.000000 
Rear_Toe3_03 0.000000 0.000000 0.000000 0.000000 0.000000 0.000000 10.000000 
Back_Bone 0.000000 0.000000 0.000000 0.000000 0.000000 0.000000 10.000000 
Head 0.000000 0.000000 0.000000 0.000000 0.000000 0.000000 10.000000 
Motor_Bone 0.000000 0.000000 0.000000 0.000000 0.000000 0.000000 10.000000 
Ping_Mechanism 0.000000 0.000000 0.000000 0.000000 0.000000 0.000000 10.000000 
BN_LookIK 0.000000 0.000000 0.000000 0.000000 0.000000 0.000000 10.000000 
bottomMouth 0.000000 0.000000 0.000000 0.000000 0.000000 0.000000 10.000000 
L_Mouth01 0.000000 0.000000 0.000000 0.000000 0.000000 0.000000 10.000000 
L_mouthFront 0.000000 0.000000 0.000000 0.000000 0.000000 0.000000 10.000000 
mouthGun 0.000000 0.000000 0.000000 0.000000 0.000000 0.000000 10.000000 
R_Mouth01 0.000000 0.000000 0.000000 0.000000 0.000000 0.000000 10.000000 
R_mouthFront 0.000000 0.000000 0.000000 0.000000 0.000000 0.000000 10.000000 
TopMouth 0.000000 0.000000 0.000000 0.000000 0.000000 0.000000 10.000000 
weapon_bone 0.000000 0.000000 0.000000 0.000000 0.000000 0.000000 10.000000 
#Beginning of Data. Separated by tabs
#Fr	Tx	Ty	Tz	Rx	Ry	Rz	SF
[Pinger_Root]
52 0.000000 0.000000 0.000000 -0.000075 -0.000000 -0.000020 0.000000
53 0.000000 0.000000 0.000000 -0.000075 -0.000000 -0.000020 0.000000
54 0.000000 0.000000 0.000000 -0.000075 -0.000000 -0.000020 0.000000
[Pelvis]
52 438.139191 623.809265 4632.510254 93.594017 -84.499931 -95.665627 4694.811523
53 381.366425 661.972900 4624.072754 105.426102 -85.032562 -108.558189 4686.757324
54 317.755920 720.253174 4597.968262 124.997108 -86.292236 -129.279617 4664.873535
[L_Hip]
52 5.766392 125.831482 872.656799 160.158691 -45.484905 122.312202 881.701050
53 5.766392 125.831482 872.656799 160.158691 -45.484905 122.312202 881.701050
54 5.766392 125.831482 872.656799 160.158691 -45.484905 122.312202 881.701050
[R_Hip]
52 5.765438 125.836372 -872.654907 32.021339 63.530281 114.797569 881.699829
53 5.765438 125.836372 -872.654907 34.592178 59.800224 118.486176 881.699829
54 5.765438 125.836372 -872.654907 36.184811 56.487728 121.191093 881.699829
[Rear_Leg01]
52 -192.298416 -925.602966 -0.001907 173.863571 -6.417228 -152.824326 945.367432
53 -192.298416 -925.602966 -0.001907 172.590775 -5.917890 -153.089844 945.367432
54 -192.298416 -925.602966 -0.001907 171.353683 -5.068289 -154.327179 945.367432
[Spine1]
52 290.604584 5.007505 0.000477 5.606215 1.201246 28.753506 290.647736
53 290.604584 5.007505 0.000477 7.085382 1.666283 28.063896 290.647736
54 290.604584 5.007505 0.000477 8.480623 1.952536 26.319149 290.647736
[L_Leg01]
52 761.932007 -0.002384 -0.069261 31.003864 -19.862215 -12.578453 761.932068
53 761.932007 -0.002384 -0.069261 31.702131 -16.049284 -18.546507 761.932068
54 761.932007 -0.002384 -0.069261 30.879683 -14.278738 -18.115456 761.932068
[L_Leg02]
52 1441.140503 -0.000954 -0.000715 -0.843950 0.320408 -114.815590 1441.140503
53 1441.140503 -0.000954 -0.000715 -1.100167 0.372142 -108.788132 1441.140503
54 1441.140503 -0.000954 -0.000715 -0.509226 0.138242 -110.939484 1441.140503
[L_Leg03]
52 1686.963989 -0.000715 -0.000954 0.029377 -0.010258 102.520920 1686.963989
53 1686.963989 -0.000715 -0.000954 0.022298 -0.009791 104.034721 1686.963989
54 1686.963989 -0.000715 -0.000954 0.009222 -0.001486 108.303078 1686.963989
[L_Foot]
52 3041.570068 -30.715107 11.297464 -1.928458 13.335560 49.993526 3041.746094
53 3041.570068 -30.715107 11.297464 -0.587292 13.529172 50.208347 3041.746094
54 3041.570068 -30.715107 11.297464 -0.190506 13.487812 50.332657 3041.746094
[L_Toe1_01]
52 -188.216690 -224.732346 -21.137953 93.920898 -8.704574 -169.800110 293.899567
53 -188.216690 -224.732346 -21.137953 94.004585 -6.158189 -175.713470 293.899567
54 -188.216690 -224.732346 -21.137953 94.102104 -6.142302 -176.608871 293.899567
[L_Toe2_01]
52 200.746536 -219.926590 148.838394 -84.364792 -28.917397 -64.179184 332.896027
53 200.746536 -219.926590 148.838394 -91.939911 -26.582611 -47.991299 332.896027
54 200.746536 -219.926590 148.838394 -91.960739 -26.485098 -47.985420 332.896027
[L_Toe3_01]
52 188.832520 -219.859131 -191.078659 -99.324120 9.001881 -78.166458 347.140900
53 188.832520 -219.859131 -191.078659 -99.415253 15.833242 -63.253616 347.140900
54 188.832520 -219.859131 -191.078659 -99.398476 15.742741 -63.119358 347.140900
[planeAlignerLeft]
52 0.812531 -811.448792 -0.314951 0.000000 -90.000000 -90.001900 811.449280
53 0.812531 -811.448792 -0.314951 0.000000 -90.000000 -90.001900 811.449280
54 0.812531 -811.448792 -0.314951 0.000000 -90.000000 -90.001900 811.449280
[L_Toe1_02]
52 413.761139 0.000477 0.000000 0.001392 -24.897497 0.001392 413.761139
53 413.761139 0.000477 0.000000 0.001384 -25.931690 0.001384 413.761139
54 413.761139 0.000477 0.000000 0.001385 -25.904663 0.001385 413.761139
[L_Toe1_03]
52 464.317322 0.000358 -0.000089 0.006145 67.980873 0.006145 464.317322
53 464.317322 0.000358 -0.000089 0.004060 56.396622 0.004060 464.317322
54 464.317322 0.000358 -0.000089 0.004404 59.090153 0.004404 464.317322
[L_Toe2_02]
52 342.235809 -0.000477 0.000238 0.001188 -72.242416 0.001188 342.235809
53 342.235809 -0.000477 0.000238 0.001184 -74.642876 0.001184 342.235809
54 342.235809 -0.000477 0.000238 0.001185 -74.146255 0.001185 342.235809
[L_Toe2_03]
52 420.210846 -0.000715 0.000000 0.026613 84.945145 0.026613 420.210846
53 420.210846 -0.000715 0.000000 -179.963547 88.275917 -179.960052 420.210846
54 420.210846 -0.000715 0.000000 0.000000 89.820869 0.003498 420.210846
[L_Toe3_02]
52 329.270111 0.000954 0.000000 0.001178 -80.221230 0.001178 329.270111
53 329.270111 0.000954 0.000000 0.001177 -81.913300 0.001177 329.270111
54 329.270111 0.000954 0.000000 0.001177 -81.771736 0.001177 329.270111
[L_Toe3_03]
52 439.137451 -0.001907 0.000954 -179.995407 79.613380 -179.991898 439.137451
53 439.137451 -0.001907 0.000954 -179.998032 72.375694 -179.994476 439.137451
54 439.137451 -0.001907 0.000954 -179.997787 73.383659 -179.994263 439.137451
[planeLockWeightLeft]
52 -0.000954 0.000238 -0.000305 -0.011826 -0.004376 0.005620 0.001029
53 -0.000954 0.000238 -0.000305 -0.011826 -0.004376 0.005620 0.001029
54 -0.000954 0.000238 -0.000305 -0.011826 -0.004376 0.005620 0.001029
[R_Leg01]
52 761.455627 -0.001907 -0.000358 115.952995 7.776905 64.509727 761.455688
53 761.455627 -0.001907 -0.000358 117.367760 6.564956 60.850704 761.455688
54 761.455627 -0.001907 -0.000358 118.532646 3.816497 56.234055 761.455688
[R_Leg02]
52 1441.140625 0.000000 -0.000238 0.466681 0.065966 -78.909149 1441.140625
53 1441.140625 0.000000 -0.000238 0.342029 0.076055 -81.815315 1441.140625
54 1441.140625 0.000000 -0.000238 0.089913 0.101621 -87.235168 1441.140625
[R_Leg03]
52 1686.963989 0.000954 0.001431 0.025312 -0.009543 116.459534 1686.963989
53 1686.963989 0.000954 0.001431 0.025222 -0.009778 117.526794 1686.963989
54 1686.963989 0.000954 0.001431 0.034279 -0.016327 119.695091 1686.963989
[R_Foot]
52 3041.560059 -30.531288 -11.204481 -7.286881 -24.814178 46.442039 3041.734131
53 3041.560059 -30.531288 -11.204481 -6.390339 -24.836588 47.072540 3041.734131
54 3041.560059 -30.531288 -11.204481 -5.325155 -24.853600 48.202042 3041.734131
[planeAlignerRight]
52 -0.635147 -812.270569 -0.364304 0.000000 -89.960434 -90.005180 812.270874
53 -0.635147 -812.270569 -0.364304 0.000000 -89.960434 -90.005180 812.270874
54 -0.635147 -812.270569 -0.364304 0.000000 -89.960434 -90.005180 812.270874
[R_Toe1_01]
52 -188.383347 -224.864899 21.052242 77.456421 2.302441 -171.520157 294.101532
53 -188.383347 -224.864899 21.052242 77.355537 1.654348 -171.863205 294.101532
54 -188.383347 -224.864899 21.052242 77.220474 1.044128 -172.623184 294.101532
[R_Toe2_01]
52 200.637817 -220.002121 -148.787384 -86.983444 41.174690 -47.539143 332.857574
53 200.637817 -220.002121 -148.787384 -87.145432 39.888550 -48.172668 332.857574
54 200.637817 -220.002121 -148.787384 -87.743820 38.482876 -49.612156 332.857574
[R_Toe3_01]
52 188.606735 -220.092957 191.126343 -74.593651 -14.791413 -64.275230 347.192566
53 188.606735 -220.092957 191.126343 -74.182755 -14.664058 -65.177177 347.192566
54 188.606735 -220.092957 191.126343 -73.775246 -14.031562 -66.462814 347.192566
[planeLockWeightRight]
52 -0.000477 0.000000 0.000000 -0.011823 -0.004379 -0.000027 0.000477
53 -0.000477 0.000000 0.000000 -0.011823 -0.004379 -0.000027 0.000477
54 -0.000477 0.000000 0.000000 -0.011823 -0.004379 -0.000027 0.000477
[R_Toe1_02]
52 413.762085 0.000477 -0.000119 0.001409 -22.840048 0.001409 413.762085
53 413.762085 0.000477 -0.000119 0.001394 -24.654362 0.001394 413.762085
54 413.762085 0.000477 -0.000119 0.001386 -25.662786 0.001386 413.762085
[R_Toe1_03]
52 464.317810 0.000000 0.001088 0.000813 32.019547 -0.003185 464.317810
53 464.317810 0.000000 0.001088 0.000610 38.763939 -0.003268 464.317810
54 464.317810 0.000000 0.001088 0.003139 46.086243 0.003139 464.317810
[R_Toe2_02]
52 342.234741 -0.000954 0.000238 -0.002334 -78.671745 -0.002334 342.234741
53 342.234741 -0.000954 0.000238 -0.002335 -78.352417 -0.002335 342.234741
54 342.234741 -0.000954 0.000238 -0.002337 -77.652390 -0.002337 342.234741
[R_Toe2_03]
52 420.210846 0.000715 -0.000268 -179.994598 71.782173 -179.998138 420.210846
53 420.210846 0.000715 -0.000268 -179.994232 73.488533 -179.997772 420.210846
54 420.210846 0.000715 -0.000268 -179.993225 76.839836 -179.996750 420.210846
[R_Toe3_02]
52 329.270355 -0.000477 -0.000954 0.001175 -83.939423 0.001175 329.270355
53 329.270355 -0.000477 -0.000954 0.001175 -83.580727 0.001175 329.270355
54 329.270355 -0.000477 -0.000954 0.001176 -82.945587 0.001176 329.270355
[R_Toe3_03]
52 439.137939 0.000238 0.001431 -179.995010 58.755096 -179.987747 439.137939
53 439.137939 0.000238 0.001431 -179.999435 62.016644 -179.995834 439.137939
54 439.137939 0.000238 0.001431 -179.998962 66.543495 -179.995392 439.137939
[Rear_Leg02]
52 1162.777710 -0.029802 0.005960 0.930714 -2.834868 -129.837799 1162.777710
53 1162.777710 -0.029802 0.005960 0.887028 -2.849580 -128.873474 1162.777710
54 1162.777710 -0.029802 0.005960 0.812118 -2.869932 -127.375244 1162.777710
[Rear_Leg03]
52 607.192505 -0.013351 -0.073195 0.010562 -0.004959 66.658707 607.192505
53 607.192505 -0.013351 -0.073195 0.010577 -0.004929 66.324936 607.192505
54 607.192505 -0.013351 -0.073195 0.010597 -0.004884 65.841812 607.192505
[Rear_Leg04]
52 995.874512 -0.020504 -0.011921 -0.043703 -0.017665 63.046677 995.874573
53 995.874512 -0.020504 -0.011921 -0.043594 -0.017932 62.345974 995.874573
54 995.874512 -0.020504 -0.011921 -0.043436 -0.018314 61.339745 995.874573
[Rear_Foot]
52 3096.176270 -0.067472 -0.041425 -164.679092 80.115150 24.008703 3096.176270
53 3096.176270 -0.067472 -0.041425 -163.146988 81.031235 26.052305 3096.176270
54 3096.176270 -0.067472 -0.041425 -160.995285 82.092041 28.970589 3096.176270
[planeAlignerCenter]
52 0.350077 0.966311 -838.790894 0.000009 0.000003 -179.999985 838.791565
53 0.350077 0.966311 -838.790894 0.000009 0.000003 -179.999985 838.791565
54 0.350077 0.966311 -838.790894 0.000009 0.000003 -179.999985 838.791565
[Rear_Toe1_01]
52 0.653352 83.966492 -371.173737 0.180278 41.910713 90.395721 380.553192
53 0.653352 83.966492 -371.173737 0.289737 41.910381 90.407745 380.553192
54 0.653352 83.966492 -371.173737 0.289574 41.910763 90.408295 380.553192
[Rear_Toe2_01]
52 178.200760 -294.826019 -362.060547 -7.199607 34.404213 -66.271919 499.765686
53 178.200760 -294.826019 -362.060547 -7.199300 34.404392 -66.271851 499.765686
54 178.200760 -294.826019 -362.060547 -7.198997 34.404579 -66.271797 499.765686
[Rear_Toe3_01]
52 -153.359680 -308.780914 -362.060852 3.290130 33.512783 -112.541939 499.952881
53 -153.359680 -308.780914 -362.060852 3.290060 33.513252 -112.541847 499.952881
54 -153.359680 -308.780914 -362.060852 3.289999 33.513733 -112.541756 499.952881
[planeLockWeightCenter]
52 -0.000062 0.000238 0.000000 -0.011814 -0.004373 -0.000015 0.000246
53 -0.000062 0.000238 0.000000 -0.011814 -0.004373 -0.000015 0.000246
54 -0.000062 0.000238 0.000000 -0.011814 -0.004373 -0.000015 0.000246
[Rear_Toe1_02]
52 379.707825 0.194073 0.000477 -0.000242 -31.680508 0.006934 379.707855
53 379.707825 0.194073 0.000477 -0.000242 -31.680176 0.006934 379.707855
54 379.707825 0.194073 0.000477 -0.000242 -31.679829 0.006934 379.707855
[Rear_Toe1_03]
52 500.129700 0.165701 0.000119 -0.000102 51.914589 0.007296 500.129761
53 500.129700 0.165701 0.000119 -0.000102 51.913483 0.007296 500.129761
54 500.129700 0.165701 0.000119 -0.000102 51.912380 0.007296 500.129761
[Rear_Toe2_02]
52 340.494507 0.000238 -0.000954 0.001192 -69.858940 0.001192 340.494507
53 340.494507 0.000238 -0.000954 0.001192 -69.858536 0.001192 340.494507
54 340.494507 0.000238 -0.000954 0.001192 -69.858139 0.001192 340.494507
[Rear_Toe2_03]
52 433.103577 0.000000 0.000238 0.006696 69.810326 0.006696 433.103546
53 433.103577 0.000000 0.000238 0.006696 69.810326 0.006696 433.103546
54 433.103577 0.000000 0.000238 0.006696 69.810326 0.006696 433.103546
[Rear_Toe3_02]
52 340.494141 -0.000358 -0.000477 0.008289 -67.279068 -0.009462 340.494171
53 340.494141 -0.000358 -0.000477 0.008289 -67.278648 -0.009462 340.494171
54 340.494141 -0.000358 -0.000477 0.008289 -67.278267 -0.009462 340.494171
[Rear_Toe3_03]
52 433.103577 0.001431 -0.000238 -0.000972 65.958984 -0.004547 433.103546
53 433.103577 0.001431 -0.000238 -0.000972 65.958984 -0.004547 433.103546
54 433.103577 0.001431 -0.000238 -0.000972 65.958984 -0.004547 433.103546
[Back_Bone]
52 1312.175781 -701.934692 0.000954 -5.765079 0.790718 -87.074280 1488.125488
53 1312.175781 -701.934692 0.000954 -4.424933 0.192143 -86.901016 1488.125488
54 1312.175781 -701.934692 0.000954 -3.084377 -0.059281 -86.700493 1488.125488
[Head]
52 1406.159424 809.709290 0.001431 0.005625 -1.477689 11.412021 1622.625488
53 1406.159424 809.709290 0.001431 -0.000613 -1.477943 10.159455 1622.625488
54 1406.159424 809.709290 0.001431 -0.001767 -1.476708 9.102207 1622.625488
[Motor_Bone]
52 1158.364380 -417.834747 0.000477 -0.094821 0.076811 -105.066124 1231.419434
53 1158.364380 -417.834747 0.000477 -0.095224 0.076305 -105.673843 1231.419434
54 1158.364380 -417.834747 0.000477 -0.095385 0.076104 -105.915695 1231.419434
[Ping_Mechanism]
52 1190.956055 -419.888306 -2.770367 0.000103 -0.000053 82.120995 1262.810547
53 1194.691162 -421.257874 -7.969048 0.000103 -0.000053 82.120995 1266.810425
54 1203.117188 -425.547913 -11.748222 0.000103 -0.000053 82.120995 1276.213135
[BN_LookIK]
52 193.241119 1380.371704 -0.002861 0.000000 89.965736 -31.038179 1393.832153
53 193.241119 1380.371704 -0.002861 0.000000 89.965736 -31.038179 1393.832153
54 193.241119 1380.371704 -0.002861 0.000000 89.965736 -31.038179 1393.832153
[bottomMouth]
52 -435.092926 615.759399 -0.000954 -0.000022 0.000016 73.527184 753.966492
53 -435.092926 615.759399 -0.000954 -0.000022 0.000016 73.527184 753.966492
54 -435.092926 615.759399 -0.000954 -0.000022 0.000016 73.527184 753.966492
[L_Mouth01]
52 554.440979 7.658243 838.222046 150.204178 23.759130 109.605339 1005.027161
53 554.440979 7.658243 838.222046 150.204178 23.759130 109.605339 1005.027161
54 554.440979 7.658243 838.222046 150.204178 23.759130 109.605339 1005.027161
[L_mouthFront]
52 551.629089 934.514771 339.150421 0.000081 2.804060 79.119301 1136.941284
53 551.629089 934.514771 339.150421 0.000081 2.804060 79.119301 1136.941284
54 551.629089 934.514771 339.150421 0.000081 2.804060 79.119301 1136.941284
[mouthGun]
52 55.332661 1627.420898 0.000000 0.000023 0.000009 -11.038128 1628.361328
53 55.332661 1627.420898 0.000000 0.000023 0.000009 -11.038128 1628.361328
54 55.332661 1627.420898 0.000000 0.000023 0.000009 -11.038128 1628.361328
[R_Mouth01]
52 554.442383 7.659197 -838.223938 29.795891 -23.759109 109.605331 1005.029541
53 554.442383 7.659197 -838.223938 29.795891 -23.759109 109.605331 1005.029541
54 554.442383 7.659197 -838.223938 29.795891 -23.759109 109.605331 1005.029541
[R_mouthFront]
52 551.629089 934.514282 -339.151367 0.000029 -2.803930 79.119133 1136.941162
53 551.629089 934.514282 -339.151367 0.000029 -2.803930 79.119133 1136.941162
54 551.629089 934.514282 -339.151367 0.000029 -2.803930 79.119133 1136.941162
[TopMouth]
52 461.269867 -56.106091 -0.008583 -0.000059 -0.000268 92.025169 464.669525
53 461.269867 -56.106091 -0.008583 -0.000059 -0.000268 92.025169 464.669525
54 461.269867 -56.106091 -0.008583 -0.000059 -0.000268 92.025169 464.669525
[weapon_bone]
52 -987.239868 1448.372803 0.001431 0.000000 89.965736 -31.038221 1752.833740
53 -987.239868 1448.372803 0.001431 0.000000 89.965736 -31.038221 1752.833740
54 -987.239868 1448.372803 0.001431 0.000000 89.965736 -31.038221 1752.833740
